<?xml version="1.0" standalone="no"?>
<!DOCTYPE svg PUBLIC "-//W3C//DTD SVG 20010904//EN"
 "http://www.w3.org/TR/2001/REC-SVG-20010904/DTD/svg10.dtd">
<svg version="1.0" xmlns="http://www.w3.org/2000/svg"
 width="2015.000000pt" height="2015.000000pt" viewBox="0 0 2015.000000 2015.000000"
 preserveAspectRatio="xMidYMid meet">
<metadata>
Created by potrace 1.11, written by Peter Selinger 2001-2013
</metadata>
<g transform="translate(0.000000,2015.000000) scale(0.100000,-0.100000)"
fill="#000000" stroke="none">
<path d="M9748 20145 c-2 -2 -75 -6 -163 -9 -88 -4 -176 -9 -195 -10 -19 -2
-79 -7 -133 -11 -54 -3 -106 -8 -115 -10 -9 -1 -53 -6 -97 -9 -44 -4 -91 -9
-105 -11 -25 -4 -75 -10 -165 -20 -27 -3 -61 -8 -75 -10 -14 -3 -47 -7 -75
-10 -27 -4 -57 -8 -65 -10 -8 -3 -35 -7 -60 -10 -42 -5 -183 -29 -240 -40 -28
-6 -120 -22 -165 -30 -16 -3 -38 -8 -47 -11 -9 -3 -27 -7 -40 -9 -81 -16 -150
-31 -278 -62 -80 -19 -154 -37 -165 -39 -42 -8 -417 -117 -568 -165 -338 -108
-780 -277 -1047 -401 -36 -16 -83 -38 -105 -48 -107 -48 -378 -184 -530 -266
-181 -97 -183 -98 -348 -195 -59 -35 -122 -73 -141 -84 -208 -122 -697 -458
-876 -602 -8 -6 -73 -58 -145 -114 -131 -103 -352 -288 -435 -365 -25 -22 -76
-70 -115 -105 -89 -80 -511 -503 -590 -589 -92 -101 -203 -227 -309 -350 -144
-167 -428 -542 -582 -765 -120 -176 -274 -414 -274 -426 0 -5 -4 -9 -10 -9 -5
0 -10 -5 -10 -10 0 -6 -15 -34 -33 -63 -40 -62 -58 -93 -198 -343 -92 -165
-339 -652 -339 -669 0 -3 -16 -41 -36 -83 -93 -198 -324 -790 -358 -917 -2 -5
-6 -17 -9 -25 -7 -17 -97 -307 -102 -330 -2 -8 -22 -80 -45 -160 -22 -80 -42
-154 -45 -165 -2 -11 -20 -85 -39 -165 -30 -121 -108 -499 -130 -630 -3 -19
-8 -44 -10 -55 -2 -11 -7 -42 -10 -68 -4 -27 -9 -58 -11 -69 -3 -11 -6 -39 -9
-62 -3 -22 -8 -58 -11 -78 -12 -88 -15 -112 -20 -156 -5 -47 -10 -90 -19 -167
-7 -59 -15 -139 -21 -235 -4 -47 -8 -101 -10 -120 -19 -166 -27 -962 -12
-1220 12 -202 25 -378 32 -435 2 -16 7 -61 10 -100 3 -38 8 -81 10 -95 2 -14
7 -50 10 -81 3 -31 7 -65 9 -75 2 -11 7 -44 10 -74 4 -30 8 -66 10 -80 2 -14
8 -47 12 -75 4 -27 8 -52 9 -55 1 -6 15 -95 21 -140 3 -19 9 -51 14 -70 5 -19
12 -55 15 -80 11 -80 76 -374 116 -534 12 -43 22 -86 24 -95 7 -37 69 -263
101 -370 262 -872 622 -1672 1103 -2449 119 -193 391 -588 521 -757 26 -33 63
-82 83 -109 88 -114 270 -334 402 -482 240 -272 518 -552 786 -796 221 -200
518 -446 703 -581 28 -20 58 -43 66 -50 14 -12 235 -169 290 -206 14 -10 62
-43 107 -74 45 -31 86 -57 92 -57 5 0 11 -4 13 -8 3 -8 324 -212 333 -212 4 0
71 -40 130 -78 11 -6 27 -15 35 -19 8 -4 42 -23 75 -42 144 -84 637 -333 795
-401 41 -18 93 -40 115 -50 98 -43 235 -100 242 -100 4 0 20 -6 35 -14 14 -8
43 -19 65 -26 21 -7 43 -16 48 -20 6 -3 39 -17 75 -29 36 -12 74 -26 85 -31
20 -9 194 -70 270 -94 199 -65 361 -115 480 -147 121 -33 389 -101 415 -105
14 -3 39 -9 55 -14 30 -9 300 -65 365 -75 19 -3 42 -8 50 -10 8 -2 38 -7 65
-11 28 -3 52 -8 55 -9 3 -2 26 -6 50 -10 25 -3 86 -12 135 -20 118 -18 150
-23 210 -30 28 -3 68 -9 90 -12 46 -6 61 -8 165 -17 41 -4 86 -9 100 -11 14
-2 68 -7 120 -10 52 -3 106 -8 120 -10 129 -19 969 -27 1245 -11 215 12 349
22 425 31 19 2 67 7 105 11 39 3 78 8 87 9 9 2 48 7 85 10 37 4 75 9 84 10 9
2 38 6 65 9 69 9 145 20 199 30 17 3 48 8 70 11 286 41 826 165 1220 280 229
66 817 274 950 334 11 6 106 46 210 91 165 71 568 266 720 348 154 83 242 133
343 194 63 37 115 68 117 68 6 0 310 194 315 201 3 3 10 8 15 10 10 4 189 125
310 210 174 122 618 473 765 604 19 18 82 74 140 125 114 102 554 539 666 661
292 321 540 627 785 969 93 130 281 411 338 505 23 39 60 99 82 134 21 34 39
65 39 67 0 2 15 27 33 56 38 59 77 128 172 303 59 109 217 421 257 510 20 44
50 109 66 145 59 129 158 368 247 600 101 263 275 824 340 1100 60 252 112
499 131 618 3 19 8 44 10 56 2 11 7 36 10 55 3 18 7 41 9 50 3 18 14 89 21
136 2 17 6 41 9 55 2 14 7 48 10 75 4 28 8 59 9 70 2 11 6 49 10 85 4 36 9 76
11 90 2 14 6 54 10 90 3 36 8 85 10 110 3 25 8 79 11 120 3 41 7 95 9 120 25
297 25 1182 1 1385 -2 17 -7 75 -11 130 -3 55 -8 107 -10 115 -2 8 -6 50 -10
92 -4 43 -8 92 -11 110 -2 18 -6 56 -9 83 -5 45 -10 82 -20 155 -2 14 -11 75
-20 135 -15 106 -39 253 -50 305 -3 14 -8 41 -11 60 -3 19 -7 42 -9 50 -2 8
-7 29 -9 45 -3 17 -15 73 -26 125 -12 52 -25 115 -30 140 -14 69 -105 420
-143 555 -138 479 -310 942 -518 1397 -62 135 -231 478 -286 578 -159 290
-334 581 -480 799 -35 51 -63 97 -63 102 0 4 -4 9 -8 11 -5 2 -23 26 -42 53
-149 223 -435 592 -649 840 -93 108 -116 133 -236 265 -72 79 -487 493 -570
570 -68 63 -206 185 -249 221 -16 13 -34 29 -40 35 -91 86 -574 461 -741 575
-44 30 -82 57 -85 60 -9 10 -242 164 -355 234 -60 37 -134 83 -162 101 -29 19
-55 34 -57 34 -2 0 -51 28 -108 61 -56 34 -132 78 -168 97 -36 19 -89 48 -118
64 -93 51 -463 235 -557 276 -49 22 -115 51 -145 65 -192 88 -580 237 -862
331 -162 54 -606 187 -673 201 -11 2 -29 6 -40 9 -179 42 -277 65 -310 71 -22
5 -44 9 -50 11 -22 5 -152 33 -180 38 -16 2 -70 12 -120 21 -49 9 -101 18
-115 20 -14 3 -36 7 -50 10 -13 2 -42 7 -65 10 -22 3 -65 10 -95 15 -61 10
-80 12 -267 35 -175 21 -208 24 -283 30 -36 3 -85 7 -110 9 -56 6 -187 15
-305 22 -92 5 -842 13 -847 9z"/>
</g>
</svg>
